HIERARCHY
ROOT pelvis
{
  OFFSET 0 100 0
  CHANNELS 6 Xposition Yposition Zposition Zrotation Xrotation Yrotation
  JOINT pelvis_right_femur
  {
    OFFSET -10.78128 -3.44521 -0.5502486
    CHANNELS 3 Zrotation Xrotation Yrotation
    JOINT right_femur_tibia
    {
      OFFSET -0.8047443 -44.0398 -0.1307829
      CHANNELS 3 Zrotation Xrotation Yrotation
      JOINT right_tibia_foot
      {
        OFFSET 3.006224 -47.83518 -5
        CHANNELS 3 Zrotation Xrotation Yrotation
        End Site
        {
          OFFSET 0 -5 15
        }
      }
    }
  }
  JOINT pelvis_left_femur
  {
    OFFSET 10.78128 -3.44521 -0.5502486
    CHANNELS 3 Zrotation Xrotation Yrotation
    JOINT left_femur_tibia
    {
      OFFSET 0.8047443 -44.0398 -0.1307829
      CHANNELS 3 Zrotation Xrotation Yrotation
      JOINT left_tibia_foot
      {
        OFFSET -4.370144 -48.10324 -4.275266
        CHANNELS 3 Zrotation Xrotation Yrotation
        End Site
        {
          OFFSET 0 -5 15
        }
      }
    }
  }
  JOINT pelvis_spine1
  {
    OFFSET 0 6.468898 -3.129235
    CHANNELS 3 Zrotation Xrotation Yrotation
    JOINT spine1
    {
      OFFSET 0 23.15396 4.99043
      CHANNELS 3 Zrotation Xrotation Yrotation
      JOINT spine2
      {
        OFFSET 0 20.79997 -5.064912
        CHANNELS 3 Zrotation Xrotation Yrotation
        JOINT neck
        {
          OFFSET 0 14.38658 9.616178
          CHANNELS 3 Zrotation Xrotation Yrotation
          End Site
          {
            OFFSET 0 20 0
          }
        }
      }
      JOINT right_manubrium
      {
        OFFSET -5.722621 16.35077 3.967754
        CHANNELS 3 Zrotation Xrotation Yrotation
        JOINT right_clavicle
        {
          OFFSET -13.16364 1.694482 -4.693211
          CHANNELS 3 Zrotation Xrotation Yrotation
          JOINT right_humerus
          {
            OFFSET -28.5034 -0.3100689 -2.792744
            CHANNELS 3 Zrotation Xrotation Yrotation
            JOINT right_radius
            {
              OFFSET -25.15693 0.02248979 -1.271978
              CHANNELS 3 Zrotation Xrotation Yrotation
              End Site
              {
                OFFSET -15 0 0
              }
            }
          }
        }
      }
      JOINT left_manubrium
      {
        OFFSET 5.722621 16.35077 3.967754
        CHANNELS 3 Zrotation Xrotation Yrotation
        JOINT left_clavicle
        {
          OFFSET 13.16364 1.694482 -4.693211
          CHANNELS 3 Zrotation Xrotation Yrotation
          JOINT left_humerus
          {
            OFFSET 29.39168 -1.063119 -2.237045
            CHANNELS 3 Zrotation Xrotation Yrotation
            JOINT left_radius
            {
              OFFSET 24.59957 -0.9528479 0.9047498
              CHANNELS 3 Zrotation Xrotation Yrotation
              End Site
              {
                OFFSET 15 -0 -0
              }
            }
          }
        }
      }
    }
  }
}
MOTION
Frames: 13
Frame Time: 0.0416666666667
553.7683 106.5213 2922.528 3.877393 -9.122606 34.90303 7.512712 6.485421 7.004938 -0 19.39732 -0 -8.714098 0.7568886 -6.730616 0.3145876 -7.831322 -5.407479 -0 28.48725 -0 0.9314656 -7.753711 15.98492 3.238745 -3.878731 7.607924 0.01821858 16.32077 -6.068601 4.329543 20.25908 0.7287281 -5.61834 -28.25158 9.862738 -13.20475 -32.52337 9.28799 103.2807 4.534068 -14.98609 -0 0 18.60445 -25.15177 16.36254 19.53079 -1.653775 -21.46309 -6.919309 -94.90044 25.99691 36.38143 0 0 -28.68673 -9.112399 9.444602 32.43543
557.6112 106.4109 2927.253 3.851713 -9.063996 34.67501 7.183944 7.89988 7.268659 -0 19.78863 -0 -8.548005 0.2112002 -6.501516 0.4800666 -8.914036 -5.443474 -0 26.98743 -0 1.031678 -7.43359 16.24645 3.117667 -3.892435 7.781802 0.03035241 16.32756 -5.912981 4.303594 20.07617 0.7131123 -5.587974 -28.12992 9.855399 -12.8712 -32.83045 9.296398 102.6232 4.99797 -14.29031 -0 0 19.67986 -25.0742 16.60043 19.70681 -1.621286 -21.02549 -6.666547 -95.45739 25.33929 37.37152 0 0 -27.16605 -8.894944 9.246066 31.93171
561.533 106.2585 2931.97 3.829575 -8.946251 34.47071 6.76804 9.114381 7.44884 -0 20.36273 -0 -8.452521 -0.04399306 -6.184637 0.5105368 -9.711931 -5.578502 -0 25.33092 -0 1.092709 -7.260281 16.52157 2.947428 -3.882617 7.893162 0.02220556 16.23449 -5.719472 4.280503 19.98246 0.7568444 -5.507764 -28.02724 9.894217 -12.52313 -32.9701 9.279952 101.9893 5.554205 -13.65006 -0 0 20.44186 -24.93165 16.6447 19.81509 -1.524059 -20.59254 -6.377815 -95.87949 24.81274 38.03109 0 0 -25.71208 -8.576058 9.074374 31.30376
565.5374 106.0806 2936.697 3.822834 -8.786887 34.31054 6.293694 10.08947 7.545899 -0 21.11943 -0 -8.445904 0.05379647 -5.804227 0.3994913 -10.20041 -5.816436 -0 23.72094 -0 1.114066 -7.233537 16.81471 2.738578 -3.846389 7.936054 -0.01044657 16.05435 -5.493785 4.271116 19.98887 0.8525426 -5.383843 -27.96295 9.982323 -12.19892 -32.93241 9.235147 101.4359 6.156769 -13.09953 -0 0 20.83304 -24.74298 16.48414 19.85258 -1.373108 -20.18259 -6.072894 -96.16466 24.46153 38.33694 0 0 -24.39105 -8.18432 8.942688 30.60689
569.6189 105.899 2941.452 3.839318 -8.605811 34.21198 5.797257 10.79155 7.56639 -0 22.05706 -0 -8.532477 0.5304571 -5.388026 0.1577536 -10.38139 -6.146166 -0 22.31145 -0 1.099427 -7.345023 17.12069 2.505657 -3.780643 7.91009 -0.06847155 15.80922 -5.245414 4.280954 20.09334 0.9902655 -5.226659 -27.9546 10.11675 -11.92912 -32.72982 9.165893 101.0107 6.754761 -12.66692 -0 0 20.8394 -24.52729 16.1284 19.82154 -1.185752 -19.81493 -5.777672 -96.32328 24.31299 38.30526 0 0 -23.26616 -7.756575 8.854418 29.9079
573.764 105.7372 2946.24 3.880984 -8.422786 34.18977 5.31995 11.18643 7.519471 -0 23.16918 -0 -8.701602 1.363254 -4.965478 -0.1880281 -10.27097 -6.541134 -0 21.18762 -0 1.054518 -7.579405 17.4211 2.266975 -3.683699 7.819098 -0.1485836 15.52644 -4.988757 4.308221 20.28192 1.159425 -5.04951 -28.01141 10.28793 -11.73051 -32.39292 9.083491 100.7458 7.298787 -12.37508 -0 0 20.48719 -24.29963 15.6079 19.72698 -0.9829377 -19.51072 -5.521298 -96.36931 24.37574 37.98072 0 0 -22.39873 -7.332113 8.804775 29.27459
577.9528 105.6163 2951.06 3.943889 -8.255414 34.25566 4.903199 11.23822 7.413737 -0 24.43373 -0 -8.930774 2.47908 -4.565933 -0.5999586 -9.890039 -6.963091 -0 20.36809 -0 0.9853743 -7.91581 17.68635 2.043399 -3.556568 7.669991 -0.2437942 15.23442 -4.742638 4.344429 20.53217 1.350138 -4.866327 -28.13004 10.48061 -11.60491 -31.96331 9.003847 100.6541 7.747515 -12.24137 -0 0 19.8332 -24.06984 14.96989 19.57479 -0.7854077 -19.29266 -5.332235 -96.31303 24.63991 37.42164 0 0 -21.84577 -6.94574 8.784933 28.76374
582.1624 105.5521 2955.901 4.019567 -8.117091 34.4173 4.582834 10.9148 7.255366 -0 25.79701 -0 -9.191167 3.764135 -4.216534 -1.035309 -9.261169 -7.368835 -0 19.82295 -0 0.8974655 -8.3303 17.88203 1.85586 -3.4037 7.472283 -0.3447356 14.95867 -4.528177 4.37734 20.81764 1.553573 -4.689645 -28.29458 10.67615 -11.54283 -31.48557 8.942925 100.7297 8.072514 -12.27606 -0 0 18.95199 -23.84443 14.27172 19.37182 -0.6098289 -19.18276 -5.233664 -96.15751 25.07907 36.68593 0 0 -21.65458 -6.622293 8.786789 28.41164
586.3705 105.552 2960.75 4.097264 -8.014947 34.67653 4.383509 10.19887 7.048103 -0 27.16071 -0 -9.453393 5.082722 -3.939774 -1.45338 -8.411445 -7.717858 -0 19.49823 -0 0.7955682 -8.798968 17.97697 1.72192 -3.233326 7.238185 -0.4412751 14.71866 -4.365595 4.395045 21.11203 1.761319 -4.529522 -28.48091 10.85558 -11.53011 -31.00055 8.912175 100.952 8.260002 -12.48027 -0 0 17.9236 -23.63009 13.5729 19.1273 -0.4661911 -19.19837 -5.23907 -95.89966 25.65348 35.82199 0 0 -21.85566 -6.37472 8.806306 28.23031
590.5582 105.6137 2965.592 4.166445 -7.948451 35.02797 4.314959 9.100748 6.79481 -0 28.38277 -0 -9.69192 6.30058 -3.751258 -1.8215 -7.377637 -7.978813 -0 19.33952 -0 0.6840332 -9.300471 17.95019 1.652336 -3.057461 6.982806 -0.5239842 14.526 -4.270895 4.389651 21.39237 1.964304 -4.393513 -28.66336 11.0026 -11.55472 -30.54097 8.91562 101.2913 8.309445 -12.84421 -0 0 16.82409 -23.43655 12.92772 18.85438 -0.3573094 -19.34791 -5.349081 -95.53477 26.31463 34.86645 0 0 -22.45598 -6.206131 8.844321 28.21027
594.7127 105.7247 2970.416 4.219021 -7.90968 35.45864 4.371443 7.668199 6.499792 -0 29.29796 -0 -9.887785 7.307297 -3.658436 -2.11894 -6.209846 -8.133329 -0 19.30975 -0 0.5671411 -9.816643 17.79502 1.648847 -2.891321 6.723794 -0.5852883 14.38422 -4.253313 4.35935 21.64086 2.152028 -4.28728 -28.82115 11.10572 -11.61097 -30.12962 8.949384 101.7146 8.230143 -13.34701 -0 0 15.71951 -23.27692 12.3796 18.57041 -0.2804518 -19.6275 -5.550595 -95.0626 27.01065 33.848 0 0 -23.43417 -6.114347 8.904897 28.32802
598.8281 105.8646 2975.217 4.250805 -7.885908 35.94907 4.534835 5.989042 6.171108 -0 29.7554 -0 -10.02999 8.03251 -3.660925 -2.337777 -4.971222 -8.176723 -0 19.39906 -0 0.4494519 -10.33055 17.52033 1.704261 -2.751824 6.479924 -0.6202837 14.29042 -4.314135 4.308436 21.84551 2.312669 -4.215282 -28.94217 11.15921 -11.70007 -29.77995 9.003508 102.1906 8.037408 -13.95811 -0 0 14.6632 -23.16541 11.95775 18.29546 -0.2303831 -20.01996 -5.818799 -94.49313 27.69183 32.79481 0 0 -24.73879 -6.096455 8.99227 28.55534
602.9052 106.0097 2979.997 4.261942 -7.864305 36.47553 4.780485 4.18472 5.822429 -0 29.66062 -0 -10.11588 8.452002 -3.75239 -2.480505 -3.733879 -8.11613 -0 19.62619 -0 0.3361224 -10.82266 17.14913 1.805137 -2.655068 6.26871 -0.6272067 14.23842 -4.446967 4.245652 22 2.434146 -4.181115 -29.02351 11.16281 -11.82743 -29.49831 9.065171 102.6922 7.749448 -14.63973 -0 0 13.69603 -23.11355 11.67654 18.04972 -0.2027053 -20.49629 -6.121884 -93.85019 28.31564 31.74213 0 0 -26.29015 -6.151284 9.10787 28.86689
